# xmcd
#
# Track frame offsets:
#	150
#	12995
#	26440
#	39112
#	54940
#	73930
#	85120
#	99170
#	114047
#	129642
#	145930
#
# Disc length: 2132 seconds
#
# Revision: 1
# Processed by: cddbd v1.5.2PL0 Copyright (c) Steve Scherf et al.
# Submitted via: audiograbber 1.83.01
#
DISCID=7f08520b
DTITLE=Bobby Peterson - Im Walking
DYEAR=1993
DGENRE=
TTITLE0=Im Walking
TTITLE1=Was It True Love
TTITLE2=The Pride Of Texas
TTITLE3=Love Is Young
TTITLE4=If You Want Me To
TTITLE5=Before I´m Broken Up, I´Breaking Out
TTITLE6=For Memories Only
TTITLE7=Moving
TTITLE8=Norway
TTITLE9=Waiting For The good Ship
TTITLE10=Country Boogie Woogie
EXTD=
EXTT0=
EXTT1=
EXTT2=
EXTT3=
EXTT4=
EXTT5=
EXTT6=
EXTT7=
EXTT8=
EXTT9=
EXTT10=
PLAYORDER=
